<?xml version="1.0" encoding="UTF-8"?>
<svg version="1.1" xmlns="http://www.w3.org/2000/svg" width="500" height="500">
<path d="M0 0 C2.06897412 0.00544726 4.13793678 0.00780983 6.20691681 0.00987244 C36.18643203 0.05639778 65.65916143 1.58157312 95.15924835 7.31785583 C96.32544708 7.54360291 96.32544708 7.54360291 97.51520538 7.77391052 C106.22889347 9.51780303 114.69881943 11.98655576 123.15924835 14.69285583 C124.45040558 15.09468079 124.45040558 15.09468079 125.76764679 15.50462341 C132.09666038 17.60876869 139.95036121 20.44971479 143.40924835 26.50682068 C143.65674835 27.10446228 143.90424835 27.70210388 144.15924835 28.31785583 C144.81924835 28.31785583 145.47924835 28.31785583 146.15924835 28.31785583 C146.36011278 32.03384774 146.31119205 33.08994029 144.15924835 36.31785583 C143.49924835 36.31785583 142.83924835 36.31785583 142.15924835 36.31785583 C142.15924835 36.97785583 142.15924835 37.63785583 142.15924835 38.31785583 C141.49924835 38.31785583 140.83924835 38.31785583 140.15924835 38.31785583 C140.15924835 38.97785583 140.15924835 39.63785583 140.15924835 40.31785583 C137.51799305 41.76432975 134.87173299 43.2000294 132.22174835 44.63035583 C131.4863382 45.03447693 130.75092804 45.43859802 129.99323273 45.85496521 C117.25608142 52.69631722 117.25608142 52.69631722 110.8350296 51.91160583 C109.72514679 51.55066833 108.61526398 51.18973083 107.47174835 50.81785583 C52.84780667 34.76960584 -10.00002118 36.41340453 -65.90325165 43.69285583 C-66.67578278 43.79182159 -67.4483139 43.89078735 -68.24425507 43.99275208 C-80.3163303 45.56178922 -92.26708209 47.734936 -104.02945709 50.90835571 C-108.86724351 52.20515426 -111.37528457 52.36072604 -116.02825165 50.38035583 C-117.12911102 49.91371521 -118.2299704 49.44707458 -119.36418915 48.96629333 C-124.98355704 46.30182901 -130.43272583 43.38918965 -135.84075165 40.31785583 C-135.84075165 39.65785583 -135.84075165 38.99785583 -135.84075165 38.31785583 C-136.50075165 38.31785583 -137.16075165 38.31785583 -137.84075165 38.31785583 C-137.84075165 37.65785583 -137.84075165 36.99785583 -137.84075165 36.31785583 C-138.50075165 36.31785583 -139.16075165 36.31785583 -139.84075165 36.31785583 C-141.08522371 34.26813715 -141.85913202 32.86926685 -141.77825165 30.44285583 C-138.18353568 22.29483297 -130.94739545 19.30055711 -123.13909149 16.17478943 C-84.39714719 1.72989624 -40.87248738 -0.11206574 0 0 Z " fill="#060606" transform="translate(247.84075164794922,135.68214416503906)"/>
<path d="M0 0 C2.61528151 0.97560658 4.50627983 2.44200997 6.69702148 4.16381836 C7.49624023 4.7812793 8.29545898 5.39874023 9.11889648 6.03491211 C9.72217773 6.59307617 10.32545898 7.15124023 10.94702148 7.72631836 C10.94702148 8.38631836 10.94702148 9.04631836 10.94702148 9.72631836 C11.93702148 10.00475586 11.93702148 10.00475586 12.94702148 10.28881836 C17.26041366 12.35565211 20.46158667 15.49169647 23.94702148 18.72631836 C23.65282117 21.85745025 22.99754481 22.68344759 20.54858398 24.76147461 C19.56631836 25.43049805 18.58405273 26.09952148 17.57202148 26.78881836 C13.70512424 29.40064851 13.70512424 29.40064851 10.22045898 32.47241211 C8.94702148 33.72631836 8.94702148 33.72631836 6.94702148 33.72631836 C6.94702148 34.38631836 6.94702148 35.04631836 6.94702148 35.72631836 C6.28702148 35.72631836 5.62702148 35.72631836 4.94702148 35.72631836 C4.94702148 36.38631836 4.94702148 37.04631836 4.94702148 37.72631836 C3.57202148 39.35131836 3.57202148 39.35131836 1.94702148 40.72631836 C1.28702148 40.72631836 0.62702148 40.72631836 -0.05297852 40.72631836 C-0.37975586 41.50749023 -0.37975586 41.50749023 -0.71313477 42.30444336 C-2.57961788 45.67826123 -5.04197233 48.51708082 -7.49047852 51.47631836 C-17.7303344 63.95737516 -17.7303344 63.95737516 -26.05297852 77.72631836 C-26.71297852 77.72631836 -27.37297852 77.72631836 -28.05297852 77.72631836 C-28.71297852 79.70631836 -29.37297852 81.68631836 -30.05297852 83.72631836 C-30.71297852 83.72631836 -31.37297852 83.72631836 -32.05297852 83.72631836 C-32.71297852 85.70631836 -33.37297852 87.68631836 -34.05297852 89.72631836 C-34.71297852 89.72631836 -35.37297852 89.72631836 -36.05297852 89.72631836 C-36.31079102 90.42112305 -36.56860352 91.11592773 -36.83422852 91.83178711 C-38.19185987 95.05616158 -39.80626865 98.00798068 -41.55297852 101.03881836 C-42.46563477 102.64176758 -42.46563477 102.64176758 -43.39672852 104.27709961 C-44.21657227 105.48946289 -44.21657227 105.48946289 -45.05297852 106.72631836 C-45.71297852 106.72631836 -46.37297852 106.72631836 -47.05297852 106.72631836 C-47.14836914 107.27030273 -47.24375977 107.81428711 -47.34204102 108.37475586 C-48.25562473 111.39660969 -49.73809063 113.68198525 -51.42797852 116.35131836 C-52.15235992 117.50730335 -52.87629243 118.66356973 -53.59985352 119.82006836 C-53.99237305 120.44397461 -54.38489258 121.06788086 -54.78930664 121.71069336 C-61.16735054 131.88401841 -67.49384324 142.07717315 -73.05297852 152.72631836 C-74.04297852 152.72631836 -75.03297852 152.72631836 -76.05297852 152.72631836 C-76.66495768 151.31876628 -77.27693685 149.91121419 -77.88891602 148.50366211 C-78.28957275 147.58319092 -78.69022949 146.66271973 -79.10302734 145.71435547 C-79.99395126 143.66311273 -80.88175924 141.6105141 -81.76660156 139.55664062 C-84.12338373 134.09850107 -86.52766361 128.67310221 -89.04907227 123.28881836 C-89.52103027 122.26151611 -89.99298828 121.23421387 -90.47924805 120.17578125 C-91.38976518 118.19743502 -92.31864455 116.22741727 -93.26733398 114.26708984 C-96.29404963 107.61247791 -96.29404963 107.61247791 -95.20922852 103.62475586 C-94.49766602 102.66827148 -93.78610352 101.71178711 -93.05297852 100.72631836 C-92.59560303 100.06736572 -92.13822754 99.40841309 -91.66699219 98.72949219 C-90.06318858 96.42740974 -88.40896109 94.16939468 -86.74047852 91.91381836 C-85.61769447 90.38771675 -84.49659659 88.86037315 -83.37719727 87.33178711 C-82.82725098 86.58203613 -82.27730469 85.83228516 -81.71069336 85.05981445 C-79.46811345 81.90302818 -77.38732386 78.64928877 -75.32568359 75.37207031 C-74.90569092 74.82897217 -74.48569824 74.28587402 -74.05297852 73.72631836 C-73.39297852 73.72631836 -72.73297852 73.72631836 -72.05297852 73.72631836 C-72.05297852 73.06631836 -72.05297852 72.40631836 -72.05297852 71.72631836 C-71.39297852 71.72631836 -70.73297852 71.72631836 -70.05297852 71.72631836 C-69.78485352 70.98381836 -69.51672852 70.24131836 -69.24047852 69.47631836 C-68.10021101 66.83569887 -66.95917546 64.87078992 -65.05297852 62.72631836 C-64.39297852 62.72631836 -63.73297852 62.72631836 -63.05297852 62.72631836 C-62.84672852 62.04569336 -62.64047852 61.36506836 -62.42797852 60.66381836 C-60.62402825 56.80992461 -58.15194401 53.64844072 -55.05297852 50.72631836 C-54.39297852 50.72631836 -53.73297852 50.72631836 -53.05297852 50.72631836 C-52.72620117 49.92194336 -52.72620117 49.92194336 -52.39282227 49.10131836 C-50.58237643 45.89213157 -48.13544436 43.38098903 -45.61547852 40.72631836 C-41.79173387 36.69346972 -41.79173387 36.69346972 -38.33032227 32.35131836 C-37.90879883 31.81506836 -37.48727539 31.27881836 -37.05297852 30.72631836 C-36.39297852 30.72631836 -35.73297852 30.72631836 -35.05297852 30.72631836 C-35.05297852 30.06631836 -35.05297852 29.40631836 -35.05297852 28.72631836 C-34.39297852 28.72631836 -33.73297852 28.72631836 -33.05297852 28.72631836 C-33.05297852 28.06631836 -33.05297852 27.40631836 -33.05297852 26.72631836 C-32.39297852 26.72631836 -31.73297852 26.72631836 -31.05297852 26.72631836 C-31.05297852 26.06631836 -31.05297852 25.40631836 -31.05297852 24.72631836 C-29.54907227 23.24584961 -29.54907227 23.24584961 -27.49047852 21.53881836 C-24.82794812 19.28377088 -22.31978233 17.01493367 -19.92797852 14.47631836 C-16.45454708 10.9625919 -12.70041149 7.83327407 -8.86547852 4.72631836 C-8.25881348 4.22068359 -7.65214844 3.71504883 -7.02709961 3.1940918 C-2.57839918 -0.34372523 -2.57839918 -0.34372523 0 0 Z " fill="#080808" transform="translate(219.052978515625,211.273681640625)"/>
<path d="M0 0 C6.02907445 3.07380074 10.48252222 6.98285992 15.3125 11.6875 C16.72339735 13.04750835 18.13607106 14.40567704 19.55078125 15.76171875 C20.16606689 16.35944092 20.78135254 16.95716309 21.4152832 17.57299805 C22.95904557 19.09043249 22.95904557 19.09043249 25 20 C25 20.66 25 21.32 25 22 C25.66 22 26.32 22 27 22 C27 22.66 27 23.32 27 24 C27.66 24 28.32 24 29 24 C30.5859375 25.609375 30.5859375 25.609375 32.375 27.75 C34.33757727 30.06903702 36.2588295 32.25219284 38.4375 34.375 C40 36 40 36 40 38 C40.66 38 41.32 38 42 38 C43.9453125 40.1171875 43.9453125 40.1171875 46.125 42.875 C46.84945312 43.77992188 47.57390625 44.68484375 48.3203125 45.6171875 C50 48 50 48 50 50 C50.66 50 51.32 50 52 50 C52.495 51.98 52.495 51.98 53 54 C53.66 54 54.32 54 55 54 C59 58.47058824 59 58.47058824 59 61 C59.66 61 60.32 61 61 61 C62.36409223 62.75863908 63.63833645 64.58703458 64.875 66.4375 C65.67330963 67.6218829 66.47285659 68.80543244 67.2734375 69.98828125 C67.70624023 70.62975098 68.13904297 71.2712207 68.58496094 71.93212891 C70.10612927 74.15509229 71.66124963 76.35088123 73.2265625 78.54296875 C73.76941895 79.30359619 74.31227539 80.06422363 74.87158203 80.84790039 C75.94579404 82.35002564 77.02224499 83.85055263 78.10107422 85.34936523 C78.59365723 86.04102783 79.08624023 86.73269043 79.59375 87.4453125 C80.25407227 88.36594482 80.25407227 88.36594482 80.92773438 89.30517578 C82 91 82 91 83 94 C82.03125 96.84057617 82.03125 96.84057617 80.5 100.29296875 C80.22858688 100.91221725 79.95717377 101.53146576 79.67753601 102.16947937 C78.79402236 104.17959503 77.89717149 106.18344801 77 108.1875 C76.39598574 109.55510172 75.7928766 110.92310356 75.19067383 112.29150391 C74.00657193 114.97862245 72.81753887 117.66345824 71.62353516 120.34619141 C69.62377295 124.84670887 67.65384779 129.3598223 65.6875 133.875 C64.79306203 135.91728305 63.89672796 137.95872109 63 140 C62.01 140 61.02 140 60 140 C59.70609375 139.43796875 59.4121875 138.8759375 59.109375 138.296875 C55.59285207 131.70844698 51.83558936 125.28188117 48 118.875 C47.50209961 118.0406543 47.00419922 117.20630859 46.49121094 116.34667969 C43.52275128 111.41091082 40.42615491 106.61906216 37.1015625 101.91455078 C36 100 36 100 36 97 C35.34 97 34.68 97 34 97 C34 96.01 34 95.02 34 94 C33.34 94 32.68 94 32 94 C30.68417937 91.73103368 29.37224764 89.45996813 28.0625 87.1875 C27.68931641 86.54490234 27.31613281 85.90230469 26.93164062 85.24023438 C25.36533365 82.51683576 23.99630626 79.98891878 23 77 C22.34 77 21.68 77 21 77 C18.68336156 73.06171464 16.56641751 69.30764815 15 65 C14.34 65 13.68 65 13 65 C11.73046875 63.19140625 11.73046875 63.19140625 10.1875 60.5625 C6.31376158 54.24913057 1.85454512 48.47495164 -2.73168945 42.66430664 C-3.28300537 41.95910889 -3.83432129 41.25391113 -4.40234375 40.52734375 C-4.90241943 39.89562256 -5.40249512 39.26390137 -5.91772461 38.61303711 C-7 37 -7 37 -7 35 C-6.34 35 -5.68 35 -5 35 C-2.26654781 27.32200756 -1.32619516 19.98101532 -0.8125 11.875 C-0.73064453 10.72773438 -0.64878906 9.58046875 -0.56445312 8.3984375 C-0.36619468 5.59949471 -0.17825753 2.80027546 0 0 Z M44 79 C45.43308135 82.95906817 47.33141949 86.28718181 49.625 89.8125 C50.25664062 90.78832031 50.88828125 91.76414062 51.5390625 92.76953125 C52.02117187 93.50558594 52.50328125 94.24164063 53 95 C54.65 94.34 56.3 93.68 58 93 C58 92.34 58 91.68 58 91 C58.66 91 59.32 91 60 91 C58.61624869 87.16009012 56.83690651 84.02947436 54.5 80.6875 C53.8915625 79.80449219 53.283125 78.92148437 52.65625 78.01171875 C52.1096875 77.34785156 51.563125 76.68398438 51 76 C48.10491489 76 46.40303527 77.48229352 44 79 Z " fill="#090909" transform="translate(294,224)"/>
<path d="M0 0 C0.99 0.495 0.99 0.495 2 1 C2.09945752 6.12282759 2.17174409 11.24508354 2.21972656 16.36865234 C2.23974522 18.10866089 2.26696886 19.84860299 2.30175781 21.58837891 C2.35070952 24.10075346 2.37306587 26.61223275 2.390625 29.125 C2.41127014 29.89303955 2.43191528 30.6610791 2.45318604 31.45239258 C2.45556173 37.27253975 0.89277097 40.95516758 -2 46 C-2.66 46 -3.32 46 -4 46 C-4 46.66 -4 47.32 -4 48 C-6.51953125 49.7265625 -6.51953125 49.7265625 -9.8125 51.625 C-10.89144531 52.25664062 -11.97039062 52.88828125 -13.08203125 53.5390625 C-16 55 -16 55 -19 55 C-19 55.66 -19 56.32 -19 57 C-20.28583984 57.48919922 -20.28583984 57.48919922 -21.59765625 57.98828125 C-22.74105469 58.42527344 -23.88445312 58.86226562 -25.0625 59.3125 C-26.18785156 59.74175781 -27.31320312 60.17101562 -28.47265625 60.61328125 C-30.72626389 61.49925103 -32.96044417 62.43753568 -35.1640625 63.44140625 C-40.37204845 65.69184218 -45.85877927 67.10092884 -51.3125 68.625 C-52.38951172 68.93695313 -53.46652344 69.24890625 -54.57617188 69.5703125 C-68.07484883 73.36400487 -68.07484883 73.36400487 -74 73 C-77.125 70.6875 -77.125 70.6875 -79 68 C-79 67.34 -79 66.68 -79 66 C-79.5775 65.731875 -80.155 65.46375 -80.75 65.1875 C-83.05550043 63.97070811 -85.02056192 62.69666121 -87 61 C-87 60.34 -87 59.68 -87 59 C-87.66 59 -88.32 59 -89 59 C-89 58.34 -89 57.68 -89 57 C-89.66 57 -90.32 57 -91 57 C-91 56.34 -91 55.68 -91 55 C-92.65 54.34 -94.3 53.68 -96 53 C-96 52.34 -96 51.68 -96 51 C-97.175625 50.566875 -97.175625 50.566875 -98.375 50.125 C-101 49 -101 49 -103 47 C-103.6328125 44.6171875 -103.6328125 44.6171875 -104.125 41.875 C-104.29257812 40.96492188 -104.46015625 40.05484375 -104.6328125 39.1171875 C-104.75398438 38.41851562 -104.87515625 37.71984375 -105 37 C-102.70702283 35.85351142 -100.95337449 35.67525255 -98.40625 35.38671875 C-97.4680542 35.27561768 -96.5298584 35.1645166 -95.56323242 35.05004883 C-94.55236572 34.93040771 -93.54149902 34.8107666 -92.5 34.6875 C-63.94345158 31.07908087 -23.06883247 24.06883247 -2 3 C-1.34 2.01 -0.68 1.02 0 0 Z " fill="#080808" transform="translate(396,171)"/>
<path d="M0 0 C0.598125 0.680625 1.19625 1.36125 1.8125 2.0625 C12.16636578 12.35819799 27.17271929 18.12791788 40.85742188 22.33935547 C43.15410164 23.04751584 45.44388372 23.77599589 47.734375 24.50390625 C59.03476513 28.04416212 70.36209398 30.82224396 82 33 C83.08667969 33.20367187 84.17335938 33.40734375 85.29296875 33.6171875 C93.48447011 35.054293 101.74431555 36.01518485 110 37 C110 37.99 110 38.98 110 40 C107.79210474 41.98651539 105.6123403 43.77902682 103.25 45.5625 C102.29867187 46.3040332 102.29867187 46.3040332 101.328125 47.06054688 C98.31112433 49.38300885 95.45325084 51.36646303 92 53 C92 53.66 92 54.32 92 55 C91.34 55 90.68 55 90 55 C90 55.66 90 56.32 90 57 C89.34 57 88.68 57 88 57 C88 57.66 88 58.32 88 59 C87.34 59 86.68 59 86 59 C86 59.66 86 60.32 86 61 C85.34 61 84.68 61 84 61 C84 61.66 84 62.32 84 63 C82.33333333 64.33333333 80.66666667 65.66666667 79 67 C78.23967288 68.09708099 77.48981739 69.20148503 76.75 70.3125 C75.8425 71.199375 74.935 72.08625 74 73 C66.69265732 72.75204626 59.87637735 70.81144551 52.875 68.8125 C51.77639648 68.50223877 50.67779297 68.19197754 49.54589844 67.87231445 C41.09958956 65.43396771 33.05328701 62.51515095 25 59 C23.33567013 58.32752077 21.66984642 57.65866164 20 57 C20 56.34 20 55.68 20 55 C19.43152344 54.88140625 18.86304687 54.7628125 18.27734375 54.640625 C10.86934754 52.55672898 4.41170976 47.91884577 0.38769531 41.38012695 C-1.33336425 37.18799648 -1.39943269 33.83270191 -1.328125 29.35546875 C-1.32625183 28.54507645 -1.32437866 27.73468414 -1.32244873 26.8997345 C-1.31575795 25.19784389 -1.30190304 23.49596789 -1.28125 21.79418945 C-1.24989096 19.17840421 -1.2402552 16.56322085 -1.234375 13.94726562 C-1.22521247 12.29165925 -1.21483911 10.63605904 -1.203125 8.98046875 C-1.19887512 8.19512253 -1.19462524 7.40977631 -1.19024658 6.60063171 C-1.11721138 1.11721138 -1.11721138 1.11721138 0 0 Z " fill="#0A0A0A" transform="translate(103,171)"/>
<path d="M0 0 C10.54814934 0.86273444 22.95588205 5.80088738 30.03125 14.01953125 C33.25493859 21.89965892 33.21331175 29.9516939 33.21875 38.33203125 C33.23099609 39.31365234 33.24324219 40.29527344 33.25585938 41.30664062 C33.29034921 58.67802236 33.29034921 58.67802236 28.03125 65.01953125 C25.25390625 66.96875 25.25390625 66.96875 22.09375 68.70703125 C21.05347656 69.28839844 20.01320313 69.86976563 18.94140625 70.46875 C17.98105469 70.98050781 17.02070313 71.49226563 16.03125 72.01953125 C15.32871094 72.41785156 14.62617188 72.81617188 13.90234375 73.2265625 C12.03125 74.01953125 12.03125 74.01953125 8.03125 74.01953125 C8.03125 74.67953125 8.03125 75.33953125 8.03125 76.01953125 C6.57489629 76.24128058 5.11602044 76.44651823 3.65625 76.64453125 C2.84414063 76.76054687 2.03203125 76.8765625 1.1953125 76.99609375 C0.48117187 77.00382812 -0.23296875 77.0115625 -0.96875 77.01953125 C-1.62875 76.35953125 -2.28875 75.69953125 -2.96875 75.01953125 C-2.26298828 73.90384766 -2.26298828 73.90384766 -1.54296875 72.765625 C0.89949828 67.85915244 0.87155888 62.46349364 1.21875 57.08203125 C1.29770508 55.95684082 1.37666016 54.83165039 1.45800781 53.67236328 C2.28064487 41.30609849 2.15983649 29.25733482 1.21875 16.89453125 C1.11385254 15.39865479 1.11385254 15.39865479 1.00683594 13.87255859 C0.5795391 8.88544269 0.22401679 5.09577598 -2.96875 1.01953125 C-1.96875 0.01953125 -1.96875 0.01953125 0 0 Z " fill="#0D0D0D" transform="translate(256.96875,192.98046875)"/>
<path d="M0 0 C4.13423396 3.76023236 7.20454231 8.22755404 10.4375 12.75 C10.99759766 13.5234375 11.55769531 14.296875 12.13476562 15.09375 C13.77903452 17.38076112 15.38932691 19.6892623 17 22 C17.7880603 23.06009277 17.7880603 23.06009277 18.59204102 24.14160156 C22.11175404 29.14502737 22.11175404 29.14502737 21.59765625 33.078125 C21.09105469 34.12484375 20.58445312 35.1715625 20.0625 36.25 C19.4742864 37.53210567 18.88714964 38.81470563 18.30078125 40.09765625 C17.94709473 40.84031738 17.5934082 41.58297852 17.22900391 42.34814453 C15.74245828 45.55570484 14.35695892 48.80281013 12.98046875 52.05859375 C12.58427086 52.99449844 12.58427086 52.99449844 12.18006897 53.9493103 C11.64043416 55.22417649 11.1009094 56.49908927 10.56149292 57.77404785 C9.25381072 60.85748487 7.9330736 63.93511654 6.609375 67.01171875 C6.15530273 68.06834717 5.70123047 69.12497559 5.23339844 70.21362305 C4.21523013 72.51377247 3.15096773 74.76420825 2 77 C1.01 77 0.02 77 -1 77 C-1.29390625 76.43796875 -1.5878125 75.8759375 -1.890625 75.296875 C-5.40714793 68.70844698 -9.16441064 62.28188117 -13 55.875 C-13.49790039 55.0406543 -13.99580078 54.20630859 -14.50878906 53.34667969 C-17.47724872 48.41091082 -20.57384509 43.61906216 -23.8984375 38.91455078 C-25 37 -25 37 -25 34 C-25.66 34 -26.32 34 -27 34 C-26.67 33.01 -26.34 32.02 -26 31 C-25.34 31 -24.68 31 -24 31 C-24.33 30.0925 -24.66 29.185 -25 28.25 C-26 25 -26 25 -26 21 C-22.96239752 18.04677537 -21.16834292 17.04208573 -17 16 C-13.7 20.95 -10.4 25.9 -7 31 C-5.68 30.67 -4.36 30.34 -3 30 C-3 29.34 -3 28.68 -3 28 C-2.34 28 -1.68 28 -1 28 C-2.45255435 25.68368391 -3.91165412 23.371983 -5.375 21.0625 C-5.7875 20.40314453 -6.2 19.74378906 -6.625 19.06445312 C-8.74532264 15.45469599 -8.74532264 15.45469599 -12 13 C-12 12.34 -12 11.68 -12 11 C-10.28515625 9.78125 -10.28515625 9.78125 -8.0625 8.5 C-4.94567974 6.81545121 -4.94567974 6.81545121 -3 4 C-2.01 3.34 -1.02 2.68 0 2 C0 1.34 0 0.68 0 0 Z " fill="#0C0B0C" transform="translate(355,287)"/>
<path d="M0 0 C0.92039063 -0.01675781 1.84078125 -0.03351563 2.7890625 -0.05078125 C5.81039825 0.37366622 7.19414485 1.20843552 9.375 3.3125 C9.375 3.9725 9.375 4.6325 9.375 5.3125 C10.00921875 5.4878125 10.6434375 5.663125 11.296875 5.84375 C13.375 7.3125 13.375 7.3125 14.203125 10.59375 C14.36574145 11.9976269 14.50481743 13.40435562 14.625 14.8125 C14.70089355 15.55556396 14.77678711 16.29862793 14.85498047 17.06420898 C15.62909298 25.46973675 15.55249076 33.88168877 15.375 42.3125 C11.2295826 41.73898352 8.35501644 39.3438762 5.125 36.875 C4.29355469 36.26301758 4.29355469 36.26301758 3.4453125 35.63867188 C2.04689091 34.58296691 0.70549348 33.45262413 -0.625 32.3125 C-0.625 31.6525 -0.625 30.9925 -0.625 30.3125 C-1.3675 30.044375 -2.11 29.77625 -2.875 29.5 C-5.51561949 28.35973249 -7.48052844 27.21869694 -9.625 25.3125 C-9.625 24.6525 -9.625 23.9925 -9.625 23.3125 C-10.19347656 23.044375 -10.76195312 22.77625 -11.34765625 22.5 C-14.5213379 20.84511283 -17.37383927 18.79156833 -20.30859375 16.75 C-22.67818844 15.27949267 -25.01147882 14.27125204 -27.625 13.3125 C-26.56898284 10.07309599 -25.55230842 9.26832588 -22.578125 7.4609375 C-21.34978302 6.85735567 -20.11509417 6.26655224 -18.875 5.6875 C-18.2665625 5.3884375 -17.658125 5.089375 -17.03125 4.78125 C-11.3801321 2.05229136 -6.31974673 0.02670316 0 0 Z " fill="#121212" transform="translate(240.625,191.6875)"/>
<path d="M0 0 C1.21236328 0.70382813 1.21236328 0.70382813 2.44921875 1.421875 C3.37734375 1.958125 4.30546875 2.494375 5.26171875 3.046875 C5.98359375 3.500625 6.70546875 3.954375 7.44921875 4.421875 C7.22048978 8.11560449 6.98294931 11.80837291 6.72265625 15.5 C6.56513519 17.75930211 6.41819404 20.01950883 6.30078125 22.28125 C6.04640074 25.89103063 5.72171667 28.06147453 3.51171875 30.984375 C1.44921875 32.421875 1.44921875 32.421875 -0.55078125 32.421875 C-0.55078125 33.081875 -0.55078125 33.741875 -0.55078125 34.421875 C-3.19544824 36.22024855 -4.55599165 36.4215744 -7.80078125 36.234375 C-15.34942894 34.59883467 -22.83745383 31.83102063 -28.55078125 26.421875 C-28.55078125 22.421875 -28.55078125 22.421875 -26.21484375 19.625 C-25.2120718 18.63018656 -24.19857785 17.64608876 -23.17578125 16.671875 C-22.66789063 16.16527344 -22.16 15.65867188 -21.63671875 15.13671875 C-17.8317575 11.421875 -17.8317575 11.421875 -15.55078125 11.421875 C-15.55078125 10.761875 -15.55078125 10.101875 -15.55078125 9.421875 C-14.89078125 9.421875 -14.23078125 9.421875 -13.55078125 9.421875 C-13.55078125 8.761875 -13.55078125 8.101875 -13.55078125 7.421875 C-11.3203125 5.40625 -11.3203125 5.40625 -8.36328125 3.171875 C-6.91888672 2.05039063 -6.91888672 2.05039063 -5.4453125 0.90625 C-2.55078125 -0.578125 -2.55078125 -0.578125 0 0 Z " fill="#111111" transform="translate(248.55078125,234.578125)"/>
<path d="M0 0 C3.34292611 3.1019945 5.76244801 6.43575362 8.25 10.25 C8.95640625 11.32765625 9.6628125 12.4053125 10.390625 13.515625 C10.92171875 14.33546875 11.4528125 15.1553125 12 16 C9.0094833 19.33557632 6.06815373 21.15083921 2 23 C1.37351562 22.00097656 0.74703125 21.00195312 0.1015625 19.97265625 C-0.72370423 18.66910993 -1.54923898 17.36573326 -2.375 16.0625 C-2.7875 15.40314453 -3.2 14.74378906 -3.625 14.06445312 C-5.74532264 10.45469599 -5.74532264 10.45469599 -9 8 C-9 7.34 -9 6.68 -9 6 C-7.03125 4.4921875 -7.03125 4.4921875 -4.5 2.875 C-3.6646875 2.33617187 -2.829375 1.79734375 -1.96875 1.2421875 C-1.3190625 0.83226562 -0.669375 0.42234375 0 0 Z " fill="#CA3E3B" transform="translate(352,292)"/>
<path d="M0 0 C2.57992458 3.07606392 4.95693203 6.26961093 7.25 9.5625 C7.77078125 10.30628906 8.2915625 11.05007813 8.828125 11.81640625 C10 14 10 14 10 18 C7 20.25 7 20.25 4 22 C0.24169267 20.51492933 -1.41236747 18.47928611 -3.6875 15.1875 C-4.59048828 13.90939453 -4.59048828 13.90939453 -5.51171875 12.60546875 C-7.00128781 9.99774548 -7.60192588 7.95636381 -8 5 C-5.31158141 2.74754119 -3.35358125 1.11786042 0 0 Z " fill="#04498A" transform="translate(337,303)"/>
<path d="M0 0 C3.77832711 3.5084466 6.72333656 7.47823276 9.75 11.625 C10.25660156 12.305625 10.76320313 12.98625 11.28515625 13.6875 C11.76339844 14.33976562 12.24164063 14.99203125 12.734375 15.6640625 C13.16975586 16.25654785 13.60513672 16.8490332 14.05371094 17.45947266 C15 19 15 19 15 21 C14.34 21 13.68 21 13 21 C13 21.66 13 22.32 13 23 C12.01 23 11.02 23 10 23 C10 22.34 10 21.68 10 21 C9.01 20.67 8.02 20.34 7 20 C5.74145508 18.50952148 5.74145508 18.50952148 4.51953125 16.62109375 C4.07802734 15.94755859 3.63652344 15.27402344 3.18164062 14.58007812 C2.50391602 13.51950195 2.50391602 13.51950195 1.8125 12.4375 C1.34908203 11.72658203 0.88566406 11.01566406 0.40820312 10.28320312 C-0.73517825 8.52687504 -1.86855228 6.7640395 -3 5 C-2.505 4.54625 -2.01 4.0925 -1.5 3.625 C0.22609337 2.12364481 0.22609337 2.12364481 0 0 Z " fill="#171618" transform="translate(355,287)"/>
<path d="M0 0 C1.67542976 0.28604898 3.34385343 0.61781233 5 1 C4.67 1.99 4.34 2.98 4 4 C4.99 4 5.98 4 7 4 C7 4.66 7 5.32 7 6 C7.639375 6.2475 8.27875 6.495 8.9375 6.75 C11 8 11 8 11.75 10.125 C11.87375 11.053125 11.87375 11.053125 12 12 C11.34 12 10.68 12 10 12 C10 12.66 10 13.32 10 14 C8.02 14 6.04 14 4 14 C4.66 12.02 5.32 10.04 6 8 C5.01 8.33 4.02 8.66 3 9 C0 7 0 7 -0.75 3.9375 C-0.8325 2.968125 -0.915 1.99875 -1 1 C-0.67 0.67 -0.34 0.34 0 0 Z " fill="#E63A34" transform="translate(349,297)"/>
<path d="M0 0 C0.77321882 2.98241547 1.41196203 5.97580475 2 9 C3.65 9.33 5.3 9.66 7 10 C6.835 10.763125 6.67 11.52625 6.5 12.3125 C5.90854604 15.03596236 5.90854604 15.03596236 6 18 C2.58059636 14.9605301 0.42725009 11.61875094 -1.8515625 7.70703125 C-2.90133104 5.84413578 -2.90133104 5.84413578 -5 5 C-5 4.34 -5 3.68 -5 3 C-2.5 1.375 -2.5 1.375 0 0 Z " fill="#C75959" transform="translate(348,295)"/>
<path d="M0 0 C3.9036874 3.46994436 6.36588975 7.55224006 9 12 C6 13 6 13 3.5625 12.5 C-0.11512938 10.34724134 -1.10804544 7.78390911 -3 4 C-2.01 3.34 -1.02 2.68 0 2 C0 1.34 0 0.68 0 0 Z " fill="#1F1113" transform="translate(355,287)"/>
<path d="M0 0 C3.21880117 3.7935871 5.6163187 7.65829477 8 12 C7.01 12 6.02 12 5 12 C5 12.66 5 13.32 5 14 C3.68 14.33 2.36 14.66 1 15 C0.34 13.35 -0.32 11.7 -1 10 C-0.01 10 0.98 10 2 10 C2.33 8.68 2.66 7.36 3 6 C2.34 6 1.68 6 1 6 C0.67 4.02 0.34 2.04 0 0 Z " fill="#1A5790" transform="translate(339,306)"/>
<path d="M0 0 C2.6486859 3.19668988 4.93992341 6.39486597 7 10 C2.545 12.97 2.545 12.97 -2 16 C-2.33 15.01 -2.66 14.02 -3 13 C-1.35 12.67 0.3 12.34 2 12 C2 11.34 2 10.68 2 10 C2.66 10 3.32 10 4 10 C3.2884375 8.9171875 3.2884375 8.9171875 2.5625 7.8125 C1.05847097 5.10524774 0.43400818 3.03805725 0 0 Z " fill="#B4423F" transform="translate(357,299)"/>
<path d="M0 0 C2.97 0.495 2.97 0.495 6 1 C5.835 1.763125 5.67 2.52625 5.5 3.3125 C4.90854604 6.03596236 4.90854604 6.03596236 5 9 C1.7457985 6.16569547 0.4793247 4.31392226 0 0 Z " fill="#D65552" transform="translate(349,304)"/>
<path d="M0 0 C1.98 0 3.96 0 6 0 C6 2.97 6 5.94 6 9 C2.91910327 6.22719294 1.31224548 3.93673644 0 0 Z " fill="#1C0303" transform="translate(358,299)"/>
<path d="M0 0 C0.99 0 1.98 0 3 0 C3 0.99 3 1.98 3 3 C0 5.1875 0 5.1875 -3 7 C-4.32 6.34 -5.64 5.68 -7 5 C-4.66785852 3.79371992 -2.50357861 2.8345262 0 2 C0 1.34 0 0.68 0 0 Z " fill="#0F4070" transform="translate(344,318)"/>
<path d="M0 0 C0.66 0 1.32 0 2 0 C1.8125 1.875 1.8125 1.875 1 4 C-1.375 5.3125 -1.375 5.3125 -4 6 C-4.99 5.67 -5.98 5.34 -7 5 C-5.60683123 2.21366246 -3.84019484 2.06507306 -1 1 C-0.67 0.67 -0.34 0.34 0 0 Z " fill="#000A1E" transform="translate(345,321)"/>
<path d="M0 0 C1.9375 0.3125 1.9375 0.3125 4 1 C4.33 1.99 4.66 2.98 5 4 C4.01 4.99 3.02 5.98 2 7 C1.67 5.68 1.34 4.36 1 3 C0.34 3 -0.32 3 -1 3 C-0.67 2.01 -0.34 1.02 0 0 Z " fill="#323232" transform="translate(329,318)"/>
<path d="M0 0 C0.33 0.99 0.66 1.98 1 3 C2.65 2.67 4.3 2.34 6 2 C6 3.98 6 5.96 6 8 C5.01 8.495 5.01 8.495 4 9 C0 4.5 0 4.5 0 0 Z " fill="#094274" transform="translate(329,308)"/>
<path d="M0 0 C0.66 0.66 1.32 1.32 2 2 C1.67 2.99 1.34 3.98 1 5 C-1.31 5 -3.62 5 -6 5 C-3.375 1.125 -3.375 1.125 0 0 Z " fill="#204F7B" transform="translate(337,303)"/>
<path d="M0 0 C2.0625 1.75 2.0625 1.75 4 4 C3.75 6.25 3.75 6.25 3 8 C2.01 7.67 1.02 7.34 0 7 C0 4.69 0 2.38 0 0 Z " fill="#302F30" transform="translate(355,287)"/>
<path d="M0 0 C3.33557632 2.9905167 5.15083921 5.93184627 7 10 C6.01 10.495 6.01 10.495 5 11 C4.67 10.01 4.34 9.02 4 8 C3.2575 7.319375 3.2575 7.319375 2.5 6.625 C0.56690264 4.53081119 0.37547204 2.77849308 0 0 Z " fill="#000F26" transform="translate(331,314)"/>
<path d="M0 0 C1.5 1.1875 1.5 1.1875 3 3 C3.1875 5.6875 3.1875 5.6875 3 8 C2.01 7.67 1.02 7.34 0 7 C-1.17755913 4.05610218 -1.03348696 3.10046087 0 0 Z " fill="#1F1F21" transform="translate(364,299)"/>
<path d="M0 0 C0.33 0.99 0.66 1.98 1 3 C-0.98 4.98 -2.96 6.96 -5 9 C-5.66 8.67 -6.32 8.34 -7 8 C-5.625 6 -5.625 6 -4 4 C-3.34 4 -2.68 4 -2 4 C-1.34 2.68 -0.68 1.36 0 0 Z " fill="#4C4C4C" transform="translate(168,258)"/>
<path d="M0 0 C2.25245881 2.68841859 3.88213958 4.64641875 5 8 C4.34 8.66 3.68 9.32 3 10 C3 8.68 3 7.36 3 6 C2.34 6 1.68 6 1 6 C0.67 4.02 0.34 2.04 0 0 Z " fill="#4A7D9C" transform="translate(339,306)"/>
</svg>
